<?xml version="1.0" ?>

<!-- Uploaded to: SVG Repo, www.svgrepo.com, Generator: SVG Repo Mixer Tools -->
<svg width="24" height="24" viewBox="0 0 200 200" id="Layer_1" version="1.1" xml:space="preserve" xmlns="http://www.w3.org/2000/svg" xmlns:xlink="http://www.w3.org/1999/xlink">

<style type="text/css">
	.st0{fill:#71A517;}
	.st1{fill:#FAD50A;}
	.st2{fill:#FAD50A;stroke:#2B2B2B;stroke-width:5;stroke-linecap:round;stroke-linejoin:round;stroke-miterlimit:10;}
	.st3{fill:#FFFFFF;stroke:#2B2B2B;stroke-width:5;stroke-linecap:round;stroke-linejoin:round;stroke-miterlimit:10;}
	.st4{fill:#7B3D72;}
	.st5{fill:#F2433B;}
	.st6{fill:#F2433B;stroke:#2B2B2B;stroke-width:6;stroke-linecap:round;stroke-linejoin:round;stroke-miterlimit:10;}
	.st7{fill:#FFFFFF;stroke:#2B2B2B;stroke-width:6;stroke-linecap:round;stroke-linejoin:round;stroke-miterlimit:10;}
	.st8{fill:#DE3727;stroke:#2B2B2B;stroke-width:6;stroke-linecap:round;stroke-linejoin:round;stroke-miterlimit:10;}
	.st9{fill:#8EBF04;}
	.st10{fill:#8EBF04;stroke:#2B2B2B;stroke-width:6;stroke-linecap:round;stroke-linejoin:round;stroke-miterlimit:10;}
	.st11{fill:#003A52;}
	.st12{fill:#7B3D72;stroke:#2B2B2B;stroke-width:6;stroke-linecap:round;stroke-linejoin:round;stroke-miterlimit:10;}
	.st13{fill:#2B2B2B;}
	.st14{fill:none;stroke:#2B2B2B;stroke-width:6;stroke-linecap:round;stroke-linejoin:round;stroke-miterlimit:10;}
	.st15{fill:#F78D0F;}
	.st16{fill:#F78D0F;stroke:#2B2B2B;stroke-width:6;stroke-linecap:round;stroke-linejoin:round;stroke-miterlimit:10;}
</style>

<g>

<circle class="st9" cx="100" cy="100" r="75.4"/>

<g>

<g>

<path class="st7" d="M101.7,104.7l0-0.5l-2.3,0.2l-2.3-0.2l0,0.5l-18.8,1.9c0,0,13.7,25.6,15.7,50.3c0.1,0.1,3,0.1,5.4,0.1     c2.5,0,5.3,0.1,5.4-0.1c2-24.7,15.7-50.3,15.7-50.3L101.7,104.7z M99.3,127.2c0-1.6-6.8-22.1-6.8-22.1l18.6,0.5     C105.6,107.2,99.7,126.7,99.3,127.2z"/>

<path class="st10" d="M134.7,79.8c-1.7-6.9-6.7-12.6-13.2-15.2c-1-8.7-8.3-15.5-17.3-15.5c-6,0-11.2,3-14.4,7.6     c-1.1-0.2-2.2-0.3-3.3-0.3c-8.5,0-15.6,6.1-17.1,14.3c-10,2.7-17.2,12.2-16.4,23.2c0.8,10.6,9.1,19.3,19.7,20.4     c4.5,0.5,8.7-0.3,12.4-2.2c3.9,3.2,8.8,5.2,14.3,5.2c7.2,0,13.6-3.4,17.7-8.7c3.5,3.7,8.6,5.8,14.2,5.4     c8.4-0.7,15.2-7.6,15.8-16.1C147.7,89.3,142.3,82.1,134.7,79.8z"/>

</g>

<path class="st10" d="M78.2,86.8c0,0-0.3-11.7,15-10.7"/>

</g>

</g>

</svg>