	<svg
		width="24"
		height="24"
		viewBox="0 0 24 24"
		fill="none"
		xmlns="http://www.w3.org/2000/svg"
	>
		<path
			d="M6.5 1.5C5.90326 1.5 5.33097 1.73705 4.90901 2.15901C4.48705 2.58097 4.25 3.15326 4.25 3.75C4.25 4.34674 4.48705 4.91903 4.90901 5.34099C5.33097 5.76295 5.90326 6 6.5 6C7.09674 6 7.66903 5.76295 8.09099 5.34099C8.51295 4.91903 8.75 4.34674 8.75 3.75C8.75 3.15326 8.51295 2.58097 8.09099 2.15901C7.66903 1.73705 7.09674 1.5 6.5 1.5ZM2.75 3.75C2.75 2.75544 3.14509 1.80161 3.84835 1.09835C4.55161 0.395088 5.50544 0 6.5 0C7.49456 0 8.44839 0.395088 9.15165 1.09835C9.85491 1.80161 10.25 2.75544 10.25 3.75C10.25 4.74456 9.85491 5.69839 9.15165 6.40165C8.44839 7.10491 7.49456 7.5 6.5 7.5C5.50544 7.5 4.55161 7.10491 3.84835 6.40165C3.14509 5.69839 2.75 4.74456 2.75 3.75ZM0 10.982C0 9.887 0.887 9 1.982 9H7.582C7.39235 9.4789 7.28223 9.98558 7.256 10.5H1.982C1.85417 10.5 1.73157 10.5508 1.64117 10.6412C1.55078 10.7316 1.5 10.8542 1.5 10.982V11.375C1.5 11.547 1.502 12.588 2.107 13.572C2.627 14.416 3.661 15.331 5.86 15.479C5.35149 15.8094 4.95534 16.2864 4.724 16.847C2.719 16.476 1.517 15.475 0.83 14.357C-5.96046e-08 13.01 0 11.618 0 11.378V10.982ZM16.417 9C16.603 9.468 16.717 9.973 16.743 10.5H22.018C22.284 10.5 22.5 10.716 22.5 10.982V11.375C22.5 11.547 22.498 12.588 21.892 13.572C21.373 14.416 20.34 15.331 18.14 15.479C18.645 15.807 19.044 16.284 19.276 16.847C21.281 16.476 22.483 15.475 23.17 14.357C24 13.009 24 11.617 24 11.377V10.982C24 10.4563 23.7912 9.95221 23.4195 9.58051C23.0478 9.20882 22.5437 9 22.018 9H16.417ZM17.5 1.5C16.9033 1.5 16.331 1.73705 15.909 2.15901C15.4871 2.58097 15.25 3.15326 15.25 3.75C15.25 4.34674 15.4871 4.91903 15.909 5.34099C16.331 5.76295 16.9033 6 17.5 6C18.0967 6 18.669 5.76295 19.091 5.34099C19.5129 4.91903 19.75 4.34674 19.75 3.75C19.75 3.15326 19.5129 2.58097 19.091 2.15901C18.669 1.73705 18.0967 1.5 17.5 1.5ZM13.75 3.75C13.75 2.75544 14.1451 1.80161 14.8483 1.09835C15.5516 0.395088 16.5054 0 17.5 0C18.4946 0 19.4484 0.395088 20.1517 1.09835C20.8549 1.80161 21.25 2.75544 21.25 3.75C21.25 4.74456 20.8549 5.69839 20.1517 6.40165C19.4484 7.10491 18.4946 7.5 17.5 7.5C16.5054 7.5 15.5516 7.10491 14.8483 6.40165C14.1451 5.69839 13.75 4.74456 13.75 3.75ZM5.5 17.982C5.5 16.887 6.387 16 7.482 16H16.518C17.613 16 18.5 16.887 18.5 17.982V18.377C18.5 18.617 18.5 20.009 17.67 21.357C16.8 22.773 15.106 24 12 24C8.894 24 7.2 22.772 6.33 21.358C5.5 20.009 5.5 18.618 5.5 18.377V17.982ZM7.482 17.5C7.35417 17.5 7.23157 17.5508 7.14117 17.6412C7.05078 17.7316 7 17.8542 7 17.982V18.375C7 18.547 7.002 19.588 7.607 20.572C8.175 21.494 9.356 22.5 12 22.5C14.644 22.5 15.825 21.494 16.392 20.572C16.998 19.589 17 18.547 17 18.375V17.982C17 17.8542 16.9492 17.7316 16.8588 17.6412C16.7684 17.5508 16.6458 17.5 16.518 17.5H7.482ZM9.75 10.75C9.75 10.4545 9.8082 10.1619 9.92127 9.88896C10.0343 9.61598 10.2001 9.36794 10.409 9.15901C10.6179 8.95008 10.866 8.78434 11.139 8.67127C11.4119 8.5582 11.7045 8.5 12 8.5C12.2955 8.5 12.5881 8.5582 12.861 8.67127C13.134 8.78434 13.3821 8.95008 13.591 9.15901C13.7999 9.36794 13.9657 9.61598 14.0787 9.88896C14.1918 10.1619 14.25 10.4545 14.25 10.75C14.25 11.3467 14.0129 11.919 13.591 12.341C13.169 12.7629 12.5967 13 12 13C11.4033 13 10.831 12.7629 10.409 12.341C9.98705 11.919 9.75 11.3467 9.75 10.75ZM12 7C11.0054 7 10.0516 7.39509 9.34835 8.09835C8.64509 8.80161 8.25 9.75544 8.25 10.75C8.25 11.7446 8.64509 12.6984 9.34835 13.4017C10.0516 14.1049 11.0054 14.5 12 14.5C12.9946 14.5 13.9484 14.1049 14.6517 13.4017C15.3549 12.6984 15.75 11.7446 15.75 10.75C15.75 9.75544 15.3549 8.80161 14.6517 8.09835C13.9484 7.39509 12.9946 7 12 7Z"
			fill="#8B8C91"
		/>
	</svg>
