<svg width="71" height="73" viewBox="0 0 71 73" fill="none" xmlns="http://www.w3.org/2000/svg">
<path d="M44.1298 36.2549V29.9759C44.1298 28.5908 43.5388 28.0368 42.0707 28.0368H38.3402C36.8721 28.0368 36.2811 28.5908 36.2811 29.9759V36.2549C36.2811 37.6399 36.8721 38.1939 38.3402 38.1939H42.0707C43.5388 38.1939 44.1298 37.6399 44.1298 36.2549Z" fill="white"/>
<path d="M34.4343 38.2863V44.5652C34.4343 45.9503 33.8434 46.5043 32.3752 46.5043H28.6448C27.1766 46.5043 26.5857 45.9503 26.5857 44.5652V38.2863C26.5857 36.9012 27.1766 36.3472 28.6448 36.3472H32.3752C33.8434 36.3472 34.4343 36.9012 34.4343 38.2863Z" fill="white"/>
<path d="M44.1298 44.5652V41.9798C44.1298 40.5947 43.5388 40.0407 42.0707 40.0407H38.3402C36.8721 40.0407 36.2811 40.5947 36.2811 41.9798V44.5652C36.2811 45.9503 36.8721 46.5043 38.3402 46.5043H42.0707C43.5388 46.5043 44.1298 45.9503 44.1298 44.5652Z" fill="white"/>
<path d="M34.4343 32.5614V29.9759C34.4343 28.5908 33.8434 28.0368 32.3752 28.0368H28.6448C27.1766 28.0368 26.5857 28.5908 26.5857 29.9759V32.5614C26.5857 33.9464 27.1766 34.5004 28.6448 34.5004H32.3752C33.8434 34.5004 34.4343 33.9464 34.4343 32.5614Z" fill="white"/>
<g opacity="0.2" filter="url(#filter0_f_1_132)">
<path d="M43.532 35.4836V29.6858C43.532 28.4069 42.9863 27.8953 41.6306 27.8953H38.186C36.8304 27.8953 36.2847 28.4069 36.2847 29.6858V35.4836C36.2847 36.7626 36.8304 37.2741 38.186 37.2741H41.6306C42.9863 37.2741 43.532 36.7626 43.532 35.4836Z" fill="white"/>
<path d="M34.5795 37.3594V43.1572C34.5795 44.4362 34.0338 44.9477 32.6781 44.9477H29.2335C27.8779 44.9477 27.3322 44.4362 27.3322 43.1572V37.3594C27.3322 36.0805 27.8779 35.5689 29.2335 35.5689H32.6781C34.0338 35.5689 34.5795 36.0805 34.5795 37.3594Z" fill="white"/>
<path d="M43.532 43.1572V40.7699C43.532 39.4909 42.9863 38.9794 41.6306 38.9794H38.186C36.8304 38.9794 36.2847 39.4909 36.2847 40.7699V43.1572C36.2847 44.4361 36.8304 44.9477 38.186 44.9477H41.6306C42.9863 44.9477 43.532 44.4361 43.532 43.1572Z" fill="white"/>
<path d="M34.5795 32.0732V29.6858C34.5795 28.4069 34.0338 27.8953 32.6781 27.8953H29.2335C27.8779 27.8953 27.3322 28.4069 27.3322 29.6858V32.0732C27.3322 33.3521 27.8779 33.8637 29.2335 33.8637H32.6781C34.0338 33.8637 34.5795 33.3521 34.5795 32.0732Z" fill="white"/>
</g>
<defs>
<filter id="filter0_f_1_132" x="-2.0271" y="-1.03768" width="74.9184" height="74.9184" filterUnits="userSpaceOnUse" color-interpolation-filters="sRGB">
<feFlood flood-opacity="0" result="BackgroundImageFix"/>
<feBlend mode="normal" in="SourceGraphic" in2="BackgroundImageFix" result="shape"/>
<feGaussianBlur stdDeviation="13.6139" result="effect1_foregroundBlur_1_132"/>
</filter>
</defs>
</svg>
