<svg width="16" height="4" viewBox="0 0 16 4" fill="white" stroke="white" xmlns="http://www.w3.org/2000/svg">
<path d="M1.53125 0.71875C1.12514 0.71875 0.735658 0.880077 0.448493 1.16724C0.161327 1.45441 0 1.84389 0 2.25C0 2.65611 0.161327 3.04559 0.448493 3.33276C0.735658 3.61992 1.12514 3.78125 1.53125 3.78125C1.93736 3.78125 2.32684 3.61992 2.61401 3.33276C2.90117 3.04559 3.0625 2.65611 3.0625 2.25C3.0625 1.84389 2.90117 1.45441 2.61401 1.16724C2.32684 0.880077 1.93736 0.71875 1.53125 0.71875ZM6.125 2.25C6.125 1.84389 6.28633 1.45441 6.57349 1.16724C6.86066 0.880077 7.25014 0.71875 7.65625 0.71875C8.06236 0.71875 8.45184 0.880077 8.73901 1.16724C9.02617 1.45441 9.1875 1.84389 9.1875 2.25C9.1875 2.65611 9.02617 3.04559 8.73901 3.33276C8.45184 3.61992 8.06236 3.78125 7.65625 3.78125C7.25014 3.78125 6.86066 3.61992 6.57349 3.33276C6.28633 3.04559 6.125 2.65611 6.125 2.25ZM12.25 2.25C12.25 1.84389 12.4113 1.45441 12.6985 1.16724C12.9857 0.880077 13.3751 0.71875 13.7813 0.71875C14.1874 0.71875 14.5768 0.880077 14.864 1.16724C15.1512 1.45441 15.3125 1.84389 15.3125 2.25C15.3125 2.65611 15.1512 3.04559 14.864 3.33276C14.5768 3.61992 14.1874 3.78125 13.7813 3.78125C13.3751 3.78125 12.9857 3.61992 12.6985 3.33276C12.4113 3.04559 12.25 2.65611 12.25 2.25Z" fill="#8B8C91"/>
</svg>
