<svg width="20" height="18" viewBox="0 0 20 18" fill="none" xmlns="http://www.w3.org/2000/svg">
<path d="M15.8118 6.64706V9.11765H19.7647V6.64706H15.8118ZM13.8353 14.8124C14.784 15.6894 16.0193 16.8506 16.9976 17.7647C17.3929 17.11 17.7882 16.4429 18.1835 15.7882C17.2052 14.8741 15.9699 13.7129 15.0212 12.8235C14.6259 13.4906 14.2306 14.1576 13.8353 14.8124ZM18.1835 -0.0235295C17.7882 -0.678235 17.3929 -1.34529 16.9976 -2C16.0193 -1.08588 14.784 0.0752943 13.8353 0.964706C14.2306 1.61941 14.6259 2.28647 15.0212 2.94118C15.9699 2.05176 17.2052 0.902941 18.1835 -0.0235295ZM1.97647 4.17647C0.889412 4.17647 0 5.28824 0 6.64706V9.11765C0 10.4765 0.889412 11.5882 1.97647 11.5882H2.96471V16.5294H4.94118V11.5882H5.92941L10.8706 15.2941V0.470588L5.92941 4.17647H1.97647ZM6.94729 6.28882L8.89412 4.83118V10.9335L6.94729 9.47588L6.47294 9.11765H1.97647V6.64706H6.47294L6.94729 6.28882ZM13.3412 7.88235C13.3412 6.23941 12.768 4.75706 11.8588 3.74412V12.0082C12.768 11.0076 13.3412 9.52529 13.3412 7.88235Z" fill="white"/>
</svg>
