<?xml version="1.0" encoding="utf-8"?>
<!-- Uploaded to: SVG Repo, www.svgrepo.com, Generator: SVG Repo Mixer Tools -->
<svg width="24" height="24" viewBox="0 0 1024 1024" class="icon"  version="1.1" xmlns="http://www.w3.org/2000/svg"><path d="M440.7 958.2C1153 776.5 923.5 63.5 923.5 63.5S539.8 167.6 398.8 468.9C287.1 315.2 88 287.2 88 287.2c-136.2 629.1 352.7 671 352.7 671z" fill="#5E676F" /><path d="M428 885.9c-57.1-265.8-54.4-405.2 237.1-634.1 58.7-46.1 124.7-76.1 189.4-103.4 22.6-9.5 28.8-11.7 28.8-11.7s1 5.3 1.5 8c21.8 119 22.9 245.4-10 362C822.7 691.6 693 823.9 460.2 885.9l313.9-549.8c3.8-6.7 1.5-15.2-5.2-19.1-6.7-3.8-15.2-1.5-19.1 5.2L428 885.9z" fill="#FFFFFF" /><path d="M347.2 776.2c4 34 10.8 69.3 20.9 106.2-129.5-52.3-204.7-142.8-237.5-262.8-23.9-87.5-23.2-182.3-7.3-271.5 0.4-2 1.1-6 1.1-6s4.5 1.6 21 8.8c47.1 20.5 94.2 46.3 137.9 77.6 37.3 26.7 68.5 55 94.1 84.9-22.3 58.7-35.1 124.1-34.4 196.7L215.5 476.2c-3.7-6.8-12.2-9.3-19-5.6s-9.3 12.2-5.6 19l156.3 286.6z" fill="#FFFFFF" /></svg>