<svg width="23" height="23" viewBox="0 0 23 23" fill="none" xmlns="http://www.w3.org/2000/svg">
<path d="M11.031 0L10.312 0.687L4.375 6.656L3.375 7.625L4.656 8.25C4.656 8.25 5.672 8.617 7.094 8.937L2.687 13.343L1.687 14.313L2.937 14.937C2.937 14.937 4.015 15.242 4.562 15.437L0.968 19.031L0 20.031L1.25 20.656C1.25 20.656 3.687 21.832 8.031 22.25V25.406H10.031V22.375C10.367 22.386 10.679 22.406 11.031 22.406C11.383 22.406 11.695 22.386 12.031 22.375V25.406H14.031V22.25C18.383 21.832 20.844 20.656 20.844 20.656L22.062 20.031L21.094 19.031L17.5 15.437C18.047 15.242 19.125 14.937 19.125 14.937L20.375 14.312L19.375 13.344L14.968 8.937C16.39 8.617 17.406 8.25 17.406 8.25L18.687 7.625L17.687 6.656L11.75 0.687L11.031 0ZM11.031 2.844L15.031 6.812C14.437 7.012 14.316 7.168 12.843 7.312L11.031 7.5L9.218 7.312C7.746 7.168 7.625 7.012 7.031 6.812L11.031 2.844ZM11.031 7.844L12.219 9L16.812 13.594C16.347 13.758 16.359 13.812 15.406 14L13.562 14.375L14.906 15.687L18.562 19.344C17.289 19.801 15.109 20.406 11.031 20.406C6.991 20.406 4.821 19.801 3.531 19.343L7.156 15.687L8.5 14.375L6.656 14C5.703 13.812 5.715 13.758 5.25 13.593L9.844 9L11.031 7.844Z" fill="#8B8C91"/>
</svg>
