<svg width="16" height="18" viewBox="0 0 16 18" fill="none" xmlns="http://www.w3.org/2000/svg">
<path d="M8.69531 8.31445C8.9056 8.40234 9.11035 8.49902 9.30957 8.60449C9.50879 8.70996 9.70247 8.83008 9.89062 8.96484C9.76888 9.10547 9.6582 9.25195 9.55859 9.4043C9.45898 9.55664 9.36768 9.7207 9.28467 9.89648C8.85856 9.60352 8.40479 9.38086 7.92334 9.22852C7.44189 9.07617 6.94661 9 6.4375 9C5.95052 9 5.48014 9.06738 5.02637 9.20215C4.57259 9.33691 4.14925 9.52441 3.75635 9.76465C3.36344 10.0049 3.00651 10.2979 2.68555 10.6436C2.36458 10.9893 2.08789 11.3701 1.85547 11.7861C1.62305 12.2021 1.4432 12.6504 1.31592 13.1309C1.18864 13.6113 1.125 14.1094 1.125 14.625H0.0625C0.0625 13.9219 0.159342 13.2451 0.353027 12.5947C0.546712 11.9443 0.826172 11.3438 1.19141 10.793C1.55664 10.2422 1.98828 9.75293 2.48633 9.3252C2.98438 8.89746 3.54883 8.56055 4.17969 8.31445C3.55436 7.88086 3.06738 7.33594 2.71875 6.67969C2.37012 6.02344 2.19303 5.29688 2.1875 4.5C2.1875 3.87891 2.29818 3.2959 2.51953 2.75098C2.74089 2.20605 3.04248 1.72852 3.42432 1.31836C3.80615 0.908203 4.25716 0.585938 4.77734 0.351562C5.29753 0.117188 5.85091 0 6.4375 0C7.02409 0 7.57471 0.117188 8.08936 0.351562C8.604 0.585938 9.05501 0.905273 9.44238 1.30957C9.82975 1.71387 10.1341 2.19141 10.3555 2.74219C10.5768 3.29297 10.6875 3.87891 10.6875 4.5C10.6875 4.88672 10.6432 5.26465 10.5547 5.63379C10.4661 6.00293 10.3333 6.35156 10.1562 6.67969C9.97917 7.00781 9.77165 7.30957 9.53369 7.58496C9.29574 7.86035 9.01628 8.10352 8.69531 8.31445ZM3.25 4.5C3.25 4.96875 3.33301 5.40527 3.49902 5.80957C3.66504 6.21387 3.89193 6.57129 4.17969 6.88184C4.46745 7.19238 4.80501 7.43555 5.19238 7.61133C5.57975 7.78711 5.99479 7.875 6.4375 7.875C6.87467 7.875 7.28695 7.78711 7.67432 7.61133C8.06169 7.43555 8.39925 7.19531 8.68701 6.89062C8.97477 6.58594 9.20443 6.22852 9.37598 5.81836C9.54753 5.4082 9.63053 4.96875 9.625 4.5C9.625 4.03711 9.54199 3.60059 9.37598 3.19043C9.20996 2.78027 8.98307 2.42285 8.69531 2.11816C8.40755 1.81348 8.06722 1.57031 7.67432 1.38867C7.28141 1.20703 6.86914 1.11914 6.4375 1.125C5.99479 1.125 5.58252 1.21289 5.20068 1.38867C4.81885 1.56445 4.48128 1.80469 4.18799 2.10938C3.89469 2.41406 3.66504 2.77441 3.49902 3.19043C3.33301 3.60645 3.25 4.04297 3.25 4.5ZM15.4688 11.8125C15.4688 12.1172 15.4245 12.4131 15.3359 12.7002C15.2474 12.9873 15.1146 13.2539 14.9375 13.5V18L12.8125 16.875L10.6875 18V13.5C10.516 13.2539 10.3859 12.9873 10.2974 12.7002C10.2088 12.4131 10.1618 12.1172 10.1562 11.8125C10.1562 11.4258 10.2254 11.0625 10.3638 10.7227C10.5021 10.3828 10.6903 10.0869 10.9282 9.83496C11.1662 9.58301 11.4484 9.38086 11.7749 9.22852C12.1014 9.07617 12.4473 9 12.8125 9C13.1777 9 13.5208 9.07324 13.8418 9.21973C14.1628 9.36621 14.4422 9.56836 14.6802 9.82617C14.9181 10.084 15.109 10.3828 15.2529 10.7227C15.3968 11.0625 15.4688 11.4258 15.4688 11.8125ZM12.8125 10.125C12.5911 10.125 12.3836 10.1689 12.1899 10.2568C11.9963 10.3447 11.8275 10.4648 11.6836 10.6172C11.5397 10.7695 11.4263 10.9482 11.3433 11.1533C11.2603 11.3584 11.2188 11.5781 11.2188 11.8125C11.2188 12.0469 11.2603 12.2666 11.3433 12.4717C11.4263 12.6768 11.5397 12.8555 11.6836 13.0078C11.8275 13.1602 11.9963 13.2803 12.1899 13.3682C12.3836 13.4561 12.5911 13.5 12.8125 13.5C13.0339 13.5 13.2414 13.4561 13.4351 13.3682C13.6287 13.2803 13.7975 13.1602 13.9414 13.0078C14.0853 12.8555 14.1987 12.6768 14.2817 12.4717C14.3647 12.2666 14.4062 12.0469 14.4062 11.8125C14.4062 11.5781 14.3647 11.3584 14.2817 11.1533C14.1987 10.9482 14.0853 10.7695 13.9414 10.6172C13.7975 10.4648 13.6287 10.3447 13.4351 10.2568C13.2414 10.1689 13.0339 10.125 12.8125 10.125ZM13.875 16.1807V14.3877C13.543 14.5459 13.1888 14.625 12.8125 14.625C12.4362 14.625 12.082 14.5459 11.75 14.3877V16.1807C11.9271 16.0869 12.1042 15.9961 12.2812 15.9082C12.4583 15.8203 12.6354 15.7236 12.8125 15.6182C12.9896 15.7178 13.1667 15.8115 13.3438 15.8994C13.5208 15.9873 13.6979 16.0811 13.875 16.1807Z" fill="white"/>
</svg>
